<svg xmlns="http://www.w3.org/2000/svg" width="213" height="48" fill="none"><path fill="#A7A7A7" fill-rule="evenodd" d="M4.291 28.602a2.3 2.3 0 0 1 0 3.267l-.046.046a2.332 2.332 0 0 1-3.285 0 2.3 2.3 0 0 1 0-3.266l.046-.047a2.332 2.332 0 0 1 3.285 0Zm10.92.696a2.3 2.3 0 0 1-.006 3.266l-6.434 6.374c-.909.9-2.38.898-3.285-.006a2.3 2.3 0 0 1 .006-3.266l6.434-6.374c.909-.9 2.38-.898 3.285.006Zm8.732 10.972a2.331 2.331 0 0 1 3.221-.64l.14.092a2.301 2.301 0 0 1 .644 3.203 2.331 2.331 0 0 1-3.221.64l-.14-.092a2.301 2.301 0 0 1-.644-3.202Zm15.33-11.806a2.3 2.3 0 0 1 0 3.266l-3.16 3.14a2.332 2.332 0 0 1-3.284 0 2.3 2.3 0 0 1 0-3.265l3.159-3.141a2.332 2.332 0 0 1 3.285 0Zm.047-11.617a2.3 2.3 0 0 1 0 3.266l-23.345 23.21a2.332 2.332 0 0 1-3.285 0 2.3 2.3 0 0 1 0-3.266l23.345-23.21a2.332 2.332 0 0 1 3.285 0Zm-4.415-7.136a2.3 2.3 0 0 1 0 3.266L21.479 26.326a2.332 2.332 0 0 1-3.285 0 2.3 2.3 0 0 1 0-3.266L31.62 9.71a2.332 2.332 0 0 1 3.285 0Zm-7.086-4.527a2.3 2.3 0 0 1 .002 3.266L10.562 25.632a2.332 2.332 0 0 1-3.285.002 2.3 2.3 0 0 1-.002-3.266L24.534 5.186a2.332 2.332 0 0 1 3.285-.002Zm-17.091 5.5a2.3 2.3 0 0 1-.006 3.266l-6.76 6.698c-.908.9-2.379.897-3.284-.006a2.3 2.3 0 0 1 .005-3.266l6.76-6.698c.908-.9 2.38-.897 3.285.006ZM14.868 4a2.316 2.316 0 0 1 2.323 2.31v.23c0 1.276-1.04 2.31-2.323 2.31a2.316 2.316 0 0 1-2.323-2.31v-.23c0-1.276 1.04-2.31 2.323-2.31Z" clip-rule="evenodd"/><path fill="#A7A7A7" d="M66.254 23.766c.675.918 1.026 2.052 1.026 3.348 0 1.134-.297 2.133-.864 3.024a5.696 5.696 0 0 1-2.403 2.106c-1.026.513-2.187.756-3.483.756H50V11.67h9.828c2.025 0 3.618.513 4.806 1.539 1.161 1.026 1.755 2.376 1.755 4.077 0 1.134-.27 2.133-.81 2.943a4.34 4.34 0 0 1-2.241 1.728c1.242.27 2.214.89 2.916 1.809Zm-12.042-3.321h4.239c1.242 0 2.16-.162 2.754-.54.594-.378.891-.945.891-1.728 0-.81-.324-1.431-.945-1.836-.621-.378-1.566-.594-2.835-.594h-4.104v4.698Zm7.776 7.857c.621-.405.945-1.026.945-1.89 0-.783-.324-1.377-.918-1.755-.594-.378-1.539-.567-2.808-.567h-4.995v4.833h4.887c1.296 0 2.241-.19 2.889-.621Zm7.514-11.772c-.486-.486-.729-1.08-.729-1.836 0-.702.243-1.296.73-1.782.485-.459 1.08-.702 1.835-.702.73 0 1.323.243 1.81.702.485.486.728 1.08.728 1.782 0 .729-.243 1.323-.729 1.809s-1.08.729-1.809.729c-.756 0-1.35-.216-1.836-.702Zm-.189 2.43h4.023V33h-4.023V18.96Zm9.27 13.527a6.807 6.807 0 0 1-2.646-2.673c-.648-1.134-.945-2.403-.945-3.861 0-1.431.297-2.7.945-3.834.621-1.134 1.512-1.998 2.646-2.646 1.134-.621 2.43-.945 3.888-.945 1.458 0 2.754.324 3.888.945a6.92 6.92 0 0 1 2.646 2.646c.648 1.134.972 2.403.972 3.834 0 1.458-.324 2.727-.972 3.861a7.06 7.06 0 0 1-2.673 2.673c-1.134.648-2.43.945-3.86.945-1.459 0-2.755-.297-3.889-.945Zm6.4-3.645c.647-.756.971-1.701.971-2.889 0-1.161-.324-2.106-.972-2.862-.648-.729-1.485-1.107-2.51-1.107-1.027 0-1.837.378-2.485 1.107-.648.756-.972 1.701-.972 2.862 0 1.188.324 2.133.972 2.889.648.756 1.458 1.134 2.484 1.134s1.863-.378 2.511-1.134Zm8.003 3.294c-1.215-.864-1.836-2.079-1.863-3.618h3.969c0 .675.297 1.188.837 1.566.54.378 1.242.567 2.106.567.729 0 1.323-.135 1.755-.459.432-.324.675-.702.675-1.134 0-.513-.27-.864-.81-1.08-.54-.189-1.35-.378-2.484-.54-1.188-.162-2.16-.351-2.916-.567a4.188 4.188 0 0 1-1.971-1.215c-.54-.594-.81-1.431-.81-2.511 0-1.404.567-2.538 1.755-3.375 1.188-.81 2.808-1.242 4.86-1.242 1.863 0 3.348.459 4.482 1.35 1.134.891 1.755 2.106 1.89 3.645h-3.942c-.054-.675-.297-1.215-.756-1.62-.486-.378-1.107-.594-1.917-.594-.756 0-1.323.162-1.728.459-.432.324-.621.729-.621 1.215 0 .486.243.837.756 1.026.513.216 1.323.378 2.403.486 1.188.162 2.187.378 2.97.594.756.216 1.431.648 1.998 1.242.54.594.837 1.458.837 2.592 0 1.404-.594 2.484-1.755 3.294s-2.754 1.215-4.779 1.215c-2.106 0-3.753-.432-4.941-1.296Z"/><path fill="#A7A7A7" d="M105.535 34.863h1.377c.864.027 1.566-.081 2.106-.324.513-.243.999-.675 1.458-1.323l-6.345-14.256h4.212l4.212 9.369 3.51-9.369h4.185l-5.724 15.066c-.702 1.647-1.62 2.781-2.781 3.429-1.161.648-2.646.945-4.482.945h-1.728v-3.537Zm15.387-15.903h3.996v2.025c.486-.756 1.107-1.377 1.917-1.809.81-.432 1.755-.648 2.835-.648 3.456 0 5.211 2.187 5.211 6.534V33h-4.05v-7.722c0-1.026-.243-1.809-.729-2.403-.486-.594-1.161-.891-2.025-.891-.972 0-1.755.351-2.322 1.053-.567.702-.837 1.62-.837 2.781V33h-3.996V18.96Zm21.917 14.148c-1.08 0-1.917-.108-2.511-.324-.621-.216-1.08-.594-1.35-1.161-.297-.567-.432-1.377-.405-2.403v-6.615h-2.997l.253-3.645h2.744v-3.78h3.996v3.78h3.672l-.252 3.645h-3.42v4.563c0 .702.027 1.188.081 1.485a.94.94 0 0 0 .432.675c.216.135.567.189 1.08.189.378 0 1.456-.027 2.077-.081l-.25 3.537a38.446 38.446 0 0 1-3.15.135Zm4.913-21.438h3.996v9.288a5.073 5.073 0 0 1 1.917-1.782c.81-.432 1.755-.648 2.835-.648 3.456 0 5.211 2.187 5.211 6.507V33h-4.05v-7.776c0-1.026-.243-1.81-.729-2.376-.486-.567-1.161-.864-2.025-.864-.972 0-1.755.35-2.322 1.026-.567.702-.837 1.62-.837 2.754V33h-3.996V11.67Zm18.998 20.817a6.74 6.74 0 0 1-2.619-2.673c-.621-1.134-.918-2.403-.918-3.861 0-1.431.297-2.7.918-3.834s1.485-1.998 2.619-2.646c1.107-.621 2.376-.945 3.807-.945 1.242 0 2.349.324 3.348.918.999.594 1.782 1.458 2.376 2.565.567 1.134.864 2.403.864 3.861v1.296h-9.855c.081.945.405 1.674.945 2.214.54.54 1.323.783 2.349.783.675 0 1.242-.162 1.674-.486.432-.324.702-.729.81-1.242h3.996c-.216 1.512-.945 2.727-2.133 3.645-1.188.918-2.646 1.35-4.374 1.35-1.431 0-2.7-.297-3.807-.945Zm6.372-7.776c-.054-.81-.297-1.458-.783-1.971-.486-.486-1.134-.756-1.944-.756-.918 0-1.62.243-2.133.729-.513.486-.837 1.161-.945 1.998h5.805Zm7.028 7.425c-1.215-.864-1.836-2.079-1.863-3.618h3.969c0 .675.297 1.188.837 1.566.54.378 1.242.567 2.106.567.729 0 1.323-.135 1.755-.459.432-.324.675-.702.675-1.134 0-.513-.27-.864-.81-1.08-.54-.189-1.35-.378-2.484-.54-1.188-.162-2.16-.351-2.916-.567a4.188 4.188 0 0 1-1.971-1.215c-.54-.594-.81-1.431-.81-2.511 0-1.404.567-2.538 1.755-3.375 1.188-.81 2.808-1.242 4.86-1.242 1.863 0 3.348.459 4.482 1.35 1.134.891 1.755 2.106 1.89 3.645h-3.942c-.054-.675-.297-1.215-.756-1.62-.486-.378-1.107-.594-1.917-.594-.756 0-1.323.162-1.728.459-.432.324-.621.729-.621 1.215 0 .486.243.837.756 1.026.513.216 1.323.378 2.403.486 1.188.162 2.187.378 2.97.594.756.216 1.431.648 1.998 1.242.54.594.837 1.458.837 2.592 0 1.404-.594 2.484-1.755 3.294s-2.754 1.215-4.779 1.215c-2.106 0-3.753-.432-4.941-1.296Zm13.311-15.606c-.486-.486-.729-1.08-.729-1.836 0-.702.243-1.296.729-1.782.486-.459 1.08-.702 1.836-.702.729 0 1.323.243 1.809.702.486.486.729 1.08.729 1.782 0 .729-.243 1.323-.729 1.809s-1.08.729-1.809.729c-.756 0-1.35-.216-1.836-.702Zm-.189 2.43h4.023V33h-4.023V18.96Zm17.152 13.176c1.215-.864 1.836-2.079 1.863-3.618h-3.969c0 .675-.297 1.188-.837 1.566-.54.378-1.242.567-2.106.567-.729 0-1.323-.135-1.755-.459-.432-.324-.675-.702-.675-1.134 0-.513.27-.864.81-1.08.54-.189 1.35-.378 2.484-.54 1.188-.162 2.16-.351 2.916-.567a4.188 4.188 0 0 0 1.971-1.215c.54-.594.81-1.431.81-2.511 0-1.404-.567-2.538-1.755-3.375-1.188-.81-2.808-1.242-4.86-1.242-1.863 0-3.348.459-4.482 1.35-1.134.891-1.755 2.106-1.89 3.645h3.942c.054-.675.297-1.215.756-1.62.486-.378 1.107-.594 1.917-.594.756 0 1.323.162 1.728.459.432.324.621.729.621 1.215 0 .486-.243.837-.756 1.026-.513.216-1.323.378-2.403.486a22.913 22.913 0 0 0-2.97.594c-.756.216-1.431.648-1.998 1.242-.54.594-.837 1.458-.837 2.592 0 1.404.594 2.484 1.755 3.294s2.754 1.215 4.779 1.215c2.106 0 3.753-.432 4.941-1.296Z"/></svg>