<svg xmlns="http://www.w3.org/2000/svg" width="152" height="48" fill="none"><g fill="#A7A7A7" clip-path="url(#a)"><path fill-rule="evenodd" d="M34.587 8.4 24.9 5.806c-.669-.18-1.21.237-1.21.93v10.028c0 .692.541 1.398 1.21 1.578l9.687 2.595c.668.18 1.21-.237 1.21-.929V9.98c0-.693-.541-1.4-1.21-1.578ZM24.9 2.045c-2.675-.716-4.843.948-4.843 3.717V15.79c0 2.77 2.168 5.596 4.843 6.312l9.687 2.596c2.675.717 4.843-.947 4.843-3.717V10.952c0-2.77-2.168-5.595-4.843-6.312L24.9 2.044Z" clip-rule="evenodd"/><path fill-rule="evenodd" d="m26.981 16.57-12.108-3.244c-.669-.179-1.211.237-1.211.93V26.79c0 .692.542 1.399 1.21 1.578l12.11 3.244c.668.18 1.21-.236 1.21-.929V18.15c0-.693-.542-1.4-1.21-1.578ZM14.873 9.567c-2.675-.717-4.844.947-4.844 3.716v12.536c0 2.769 2.169 5.595 4.844 6.312l12.108 3.244c2.675.717 4.843-.947 4.843-3.716V19.122c0-2.77-2.168-5.595-4.843-6.312L14.873 9.566Z" clip-rule="evenodd"/><path fill-rule="evenodd" d="m19.374 24.74-14.53-3.892c-.67-.18-1.211.236-1.211.929v15.042c0 .693.542 1.4 1.21 1.578l14.53 3.894c.67.179 1.211-.237 1.211-.93V26.32c0-.692-.542-1.399-1.21-1.578Zm-14.53-7.653C2.167 16.37 0 18.034 0 20.803v15.043c0 2.77 2.168 5.595 4.843 6.312l14.53 3.893c2.675.717 4.844-.947 4.844-3.716V27.292c0-2.77-2.168-5.595-4.843-6.312l-14.53-3.893Z" clip-rule="evenodd"/><path d="M53.64 32.608c1.139.523 2.445.784 3.92.784s2.763-.252 3.864-.756c1.12-.523 1.988-1.25 2.604-2.184.616-.952.924-2.063.924-3.332v-.336c0-1.176-.27-2.128-.812-2.856a4.843 4.843 0 0 0-2.072-1.652 6.364 6.364 0 0 0-2.548-.532h-1.036v-.448l5.908-3.136V13.4H50.504v3.192h9.912v.448l-6.328 3.36v3.92h3.92c.635 0 1.204.093 1.708.28.504.168.905.439 1.204.812.299.373.448.859.448 1.456v.28c0 .877-.336 1.605-1.008 2.184-.653.579-1.587.868-2.8.868-1.195 0-2.156-.308-2.884-.924-.728-.635-1.092-1.475-1.092-2.52v-.392H50v.504c0 1.344.317 2.51.952 3.5.653.97 1.55 1.717 2.688 2.24Z"/><path fill-rule="evenodd" d="M77.843 14.156c-.933-.504-2.016-.756-3.248-.756h-8.064V33h3.696v-7.168h4.368c1.195 0 2.259-.243 3.192-.728a5.65 5.65 0 0 0 2.24-2.1c.56-.915.84-1.979.84-3.192v-.392c0-1.232-.27-2.296-.812-3.192a5.273 5.273 0 0 0-2.212-2.072Zm-1.484 7.588c-.541.485-1.25.728-2.128.728h-4.004V16.76h4.004c.878 0 1.587.243 2.128.728.542.485.812 1.148.812 1.988v.28c0 .84-.27 1.503-.812 1.988ZM88.42 33.392c-1.38 0-2.622-.28-3.723-.84a6.299 6.299 0 0 1-2.604-2.436c-.635-1.064-.952-2.343-.952-3.836v-.448c0-1.494.317-2.772.952-3.836a6.299 6.299 0 0 1 2.604-2.436c1.1-.56 2.342-.84 3.724-.84 1.38 0 2.622.28 3.724.84a6.3 6.3 0 0 1 2.604 2.436c.634 1.064.952 2.343.952 3.836v.448c0 1.493-.318 2.772-.952 3.836a6.3 6.3 0 0 1-2.604 2.436c-1.102.56-2.343.84-3.724.84Zm0-3.136c1.083 0 1.98-.346 2.689-1.036.709-.71 1.064-1.717 1.064-3.024v-.28c0-1.307-.355-2.306-1.064-2.996-.691-.71-1.587-1.064-2.688-1.064-1.083 0-1.98.354-2.688 1.064-.71.69-1.064 1.69-1.064 2.996v.28c0 1.306.354 2.314 1.064 3.024.709.69 1.605 1.036 2.688 1.036Z" clip-rule="evenodd"/><path d="M102.543 19.448c-.467.261-.803.672-1.008 1.232h-.504v-1.568h-3.472V33h3.528v-7.896c0-.99.289-1.717.868-2.184.579-.485 1.316-.728 2.212-.728h1.736v-.002h3.598v7.674c0 .952.28 1.717.84 2.296.578.56 1.325.84 2.24.84h3.92v-2.912h-2.688c-.523 0-.784-.28-.784-.84V22.19h3.808v-3.13h-3.808V14.8h-3.528v4.26h-3.598v-.004h-1.68c-.635 0-1.195.13-1.68.392Z"/><path fill-rule="evenodd" d="M120.28 32.888c.784.336 1.671.504 2.66.504.971 0 1.736-.14 2.296-.42.56-.28.971-.598 1.232-.952.261-.374.429-.672.504-.896h.532v.028c0 .56.224 1.008.672 1.344.448.336 1.017.504 1.708.504h2.352v-2.912h-1.12c-.523 0-.784-.28-.784-.84v-5.18c0-1.736-.532-3.062-1.596-3.976-1.064-.915-2.511-1.372-4.34-1.372-1.195 0-2.212.187-3.052.56-.821.354-1.484.83-1.988 1.428a5.615 5.615 0 0 0-1.064 1.932l3.248 1.092c.131-.635.411-1.148.84-1.54.429-.41 1.083-.616 1.96-.616.896 0 1.549.215 1.96.644.411.41.616.943.616 1.596v.784h-3.808c-1.045 0-1.979.168-2.8.504-.803.317-1.437.803-1.904 1.456-.448.635-.672 1.428-.672 2.38s.224 1.764.672 2.436c.467.653 1.092 1.157 1.876 1.512Zm5.684-3.164c-.616.541-1.419.812-2.408.812-.747 0-1.316-.159-1.708-.476a1.512 1.512 0 0 1-.588-1.232c0-.504.187-.896.56-1.176.373-.28.887-.42 1.54-.42h3.556v.28c0 .915-.317 1.652-.952 2.212Z" clip-rule="evenodd"/><path d="M140.77 32.216c1.157.784 2.641 1.176 4.452 1.176 1.773 0 3.183-.392 4.228-1.176 1.064-.803 1.596-1.932 1.596-3.388 0-.97-.252-1.736-.756-2.296-.485-.579-1.157-1.017-2.016-1.316-.84-.318-1.783-.57-2.828-.756l-.784-.14c-.635-.112-1.139-.27-1.512-.476-.373-.224-.56-.56-.56-1.008 0-.41.177-.728.532-.952.355-.243.868-.364 1.54-.364s1.232.15 1.68.448c.467.299.775.802.924 1.512l3.276-1.008c-.317-1.12-.989-2.026-2.016-2.716-1.027-.69-2.315-1.036-3.864-1.036-1.643 0-2.968.373-3.976 1.12-1.008.728-1.512 1.782-1.512 3.164 0 .915.243 1.661.728 2.24.485.579 1.129 1.036 1.932 1.372.803.317 1.689.57 2.66.756l.784.14c.821.15 1.419.345 1.792.588.373.224.56.55.56.98 0 .43-.196.793-.588 1.092-.392.28-.999.42-1.82.42a4.939 4.939 0 0 1-1.512-.224 2.755 2.755 0 0 1-1.148-.812c-.299-.373-.513-.887-.644-1.54l-3.248.84c.243 1.456.943 2.576 2.1 3.36Zm-7.352.784V13.4h3.528V33h-3.528Z"/></g><defs><clipPath id="a"><path fill="#fff" d="M0 0h152v48H0z"/></clipPath></defs></svg>