<svg xmlns="http://www.w3.org/2000/svg" width="153" height="48" fill="none"><g fill="#A7A7A7" clip-path="url(#a)"><path d="M23.453 34.719c-3.182-1.182-6.455-1.364-9.455-.546-2.09.546-4.09 1.637-5.909 3l-1.272 1.091-.364.364.818.727c.091 0 .091.091.182.182.182.182.364.273.636.455l.546.363.545-.454c.091-.091.273-.273.455-.364 1.636-1.364 3.454-2.273 5.363-2.727 2.455-.637 5.091-.546 7.728.454 2.181.819 6.636 1.818 12-.454l.181-.091.273-.273c0-.09.09-.09.182-.182.454-.545.909-1.09 1.272-1.727l1.819-2.818-2.91 1.636c-4.272 2.364-8.181 2.818-12.09 1.364ZM11 24.901c2.455-.636 5.091-.545 7.727.455 2.91 1.09 10.364 2.636 18.727-4.91l1.819-1.818-.182-.454c-.091-.364-.273-.818-.455-1.273l-.454-1.272-.91.909c-.09.181-.272.272-.454.454-4 4.09-10.182 8.273-17.272 5.727-3.182-1.181-6.455-1.363-9.455-.545-2.909.818-5.454 2.363-7.818 4.545v-.09L.91 28.082c0 .09-.091.09-.182.182l-.273.272.091.364c.09.454.273.909.364 1.364l.545 1.454.91-1.182c.09-.181.272-.272.363-.454C4.637 28.356 7.273 25.9 11 24.9Z"/><path d="M2.182 23.265c2.09-2.182 4.454-3.546 7-4.273 2.454-.636 5.09-.546 7.727.454 8.181 3 15.272-1.909 18.363-4.545l1.182-1.182.454-.363-.363-.546c-.273-.273-.455-.636-.727-1l-.546-.727-.636.636-.364.364c-3.818 3.636-9.727 7.364-16.454 4.818-3.182-1.182-6.455-1.364-9.455-.545-1.909.545-3.727 1.454-5.545 2.636L.91 20.537l-.454.455-.182.182v.272c-.091.637-.091 1.273-.182 1.819L0 25.537l1.545-1.636c.182-.182.364-.455.637-.636ZM26.091 40.9c-.272-.09-.454-.181-.727-.272-3.182-1.182-6.454-1.364-9.454-.545-.637.181-1.273.363-1.91.636l-2.181 1-.546.273 1.819.636 1.636.545.273.091.272-.09c.273-.091.546-.273.819-.273.181 0 .363-.091.545-.182 2.182-.546 4.545-.546 7.09.273.273.09.455.181.728.272l.455.182.272-.09c.637-.183 1.364-.364 1.91-.637l2.545-.91L27 41.174c-.272-.09-.636-.181-.909-.272ZM40 22.083l-1.364 1.364-.546.545c-3.727 3.545-9.727 7.363-16.454 4.818-3.182-1.182-6.454-1.364-9.454-.545-2.818.818-5.364 2.272-7.637 4.454l-1.181 1.273-.364.454.364.546c.272.363.454.636.636 1l.545.818.637-.818.363-.364c2.182-2.364 4.546-3.818 7.273-4.545 2.455-.637 5.09-.546 7.727.454 2.273.818 4.636 1.091 7 .818 4.182-.454 8.363-2.818 11.454-5.454.182-.182.364-.273.546-.455l.273-.272V25.9c0-.546.09-1.182.09-1.727l.092-2.09Z"/><path d="M5.454 13.72c.545-.273 1.182-.455 1.727-.637 2.455-.636 5.091-.545 7.727.455 1.728.636 3.455.909 5.364.909 3.818 0 7.636-1.364 11.181-4l1.819-1.455-.819-.636a4.036 4.036 0 0 0-1-.727l-.545-.364-.455.364c-.181.09-.272.272-.454.363-4.818 3.637-9.636 4.637-14.182 2.91C12.545 9.72 9.272 9.446 6 10.446c-.272.09-.545.182-.909.273l-.181.09-.273.273c0 .091-.091.091-.182.182-.364.545-.818 1-1.182 1.545l-1.727 2.637 2.818-1.455c.455 0 .818-.182 1.09-.272Zm7.456-6.182.272.09c1.182.455 3 .91 5.272.91 2.364 0 4.637-.546 6.91-1.455L28.18 5.72l-1.909-.637c-.545-.182-1.09-.363-1.727-.454h-.273l-.272.09c-.273.091-.546.273-.818.364-2.728 1-5.455 1.182-8.091.455l-.818-.273-.273-.09-.273.09c-.545.182-1.09.364-1.636.636l-2.09.91 2.182.636c.182-.091.454 0 .727.09Zm119.839 6.427c-.414-.414-.936-.621-1.566-.621s-1.161.207-1.593.621c-.414.396-.621.9-.621 1.512s.207 1.125.621 1.539c.432.414.963.621 1.593.621s1.152-.207 1.566-.621c.414-.414.621-.927.621-1.539 0-.612-.207-1.116-.621-1.512Zm-30.56 15.147c-.684-.576-1.062-1.332-1.134-2.268l-3.97-.054a5.807 5.807 0 0 0 1.027 3.267c.666.972 1.584 1.737 2.754 2.295 1.188.54 2.538.81 4.05.81 1.404 0 2.664-.261 3.78-.783 1.134-.522 2.016-1.233 2.646-2.133.63-.918.945-1.953.945-3.105 0-1.188-.27-2.133-.81-2.835a4.595 4.595 0 0 0-2.079-1.593c-.864-.36-1.926-.657-3.186-.891-1.242-.234-2.16-.432-2.754-.594-.594-.18-1.053-.405-1.377-.675-.324-.288-.486-.684-.486-1.188 0-.702.27-1.242.81-1.62.54-.378 1.26-.567 2.16-.567.972 0 1.755.252 2.349.756.594.486.936 1.134 1.026 1.944h3.969a5.242 5.242 0 0 0-.999-3.051c-.63-.9-1.503-1.602-2.619-2.106-1.098-.522-2.34-.783-3.726-.783-1.35 0-2.565.252-3.645.756-1.062.486-1.9 1.161-2.511 2.025-.594.864-.891 1.845-.891 2.943 0 1.206.26 2.178.783 2.916a5.204 5.204 0 0 0 2.079 1.647c.846.36 1.89.657 3.132.891 1.26.252 2.187.468 2.781.648.612.162 1.08.396 1.404.702.342.288.513.684.513 1.188 0 .72-.306 1.287-.918 1.701-.594.396-1.368.594-2.322.594-1.152 0-2.079-.279-2.781-.837Z"/><path fill-rule="evenodd" d="M56.912 14.1 50 33h4.185l1.458-4.131h7.182L64.283 33h4.347l-6.858-18.9h-4.86Zm-.189 11.502 2.484-7.182 2.511 7.182h-4.995Z" clip-rule="evenodd"/><path d="M121.79 18.96c1.638 0 2.979.504 4.023 1.512 1.062 1.008 1.593 2.673 1.593 4.995V33h-3.807v-7.371c0-1.152-.234-2.025-.702-2.619-.468-.612-1.17-.918-2.106-.918-.972 0-1.737.333-2.295.999-.54.666-.81 1.593-.81 2.781V33h-3.807V14.1h3.807v6.723c1.026-1.242 2.394-1.863 4.104-1.863Zm18.093-.486c0-.396.09-.684.27-.864.18-.18.468-.27.864-.27h2.349V14.1h-3.105c-1.386 0-2.43.333-3.132.999-.702.648-1.053 1.584-1.053 2.808v1.215h-2.295v3.213h2.295V33h3.807V22.335h6.015V33h3.807V22.335h2.997v-3.213h-2.997V14.1h-3.807v5.022h-6.015v-.648Zm-6.81.648h-3.807V33h3.807V19.122ZM73.334 14.1h-3.807V33h3.807V14.1Zm3.004 5.022h-2.295v3.213h2.295V33h3.807V22.335h2.997v-3.213h-2.997V14.1h-3.807v5.022Zm11.739 12.15h3.456V27.06h4.21v-3.456h-4.21v-4.212h-3.458v4.212h-4.212v3.456h4.212v4.212h.002Z"/></g><defs><clipPath id="a"><path fill="#fff" d="M0 0h153v48H0z"/></clipPath></defs></svg>