<svg xmlns="http://www.w3.org/2000/svg" width="197" height="48" fill="none"><g fill="#A7A7A7" clip-path="url(#a)"><path fill-rule="evenodd" d="M0 24c15.255 0 24-8.745 24-24 0 15.255 8.745 24 24 24-15.255 0-24 8.745-24 24 0-15.255-8.745-24-24-24Z" clip-rule="evenodd"/><path d="m54 33 6.561-19.683h5.94L73.062 33h-4.374l-1.323-4.05h-7.668L58.374 33H54Zm6.669-7.263h5.724l-1.674-5.022-1.107-3.591h-.162l-1.107 3.591-1.674 5.022Zm19.714 7.506c-1.44 0-2.7-.306-3.78-.918a6.515 6.515 0 0 1-2.51-2.619c-.595-1.134-.892-2.448-.892-3.942 0-1.512.297-2.826.891-3.942a6.42 6.42 0 0 1 2.565-2.619c1.098-.63 2.385-.945 3.861-.945 1.242 0 2.35.234 3.321.702.972.468 1.737 1.116 2.295 1.944.576.828.891 1.791.945 2.89h-3.888c-.126-.757-.44-1.324-.945-1.702-.504-.396-1.116-.594-1.836-.594-1.044 0-1.836.387-2.376 1.161-.54.774-.81 1.81-.81 3.105 0 1.422.288 2.484.864 3.186.594.702 1.36 1.053 2.295 1.053.846 0 1.512-.216 1.998-.648.504-.432.792-.999.864-1.7h3.861c-.054 1.133-.378 2.123-.972 2.97-.576.827-1.359 1.475-2.349 1.943-.99.45-2.124.675-3.402.675ZM89.004 33V18.528h3.834l.135 2.62h.162c.36-.955.945-1.675 1.755-2.16a5.098 5.098 0 0 1 2.673-.73c1.008 0 1.926.243 2.754.73.828.485 1.44 1.322 1.836 2.51h.216c.342-1.08.945-1.89 1.809-2.43.882-.54 1.872-.81 2.97-.81.936 0 1.773.198 2.511.594.738.396 1.323 1.035 1.755 1.917.45.864.675 2.025.675 3.483V33h-3.969v-7.884c0-1.224-.207-2.133-.621-2.727-.396-.594-1.044-.89-1.944-.89-.954 0-1.701.35-2.241 1.052-.522.684-.783 1.485-.783 2.403V33h-3.97v-7.884c0-1.224-.206-2.133-.62-2.727-.396-.594-1.044-.89-1.944-.89-.972 0-1.72.35-2.241 1.052-.522.684-.783 1.485-.783 2.403V33h-3.97Zm32.144.243c-1.512 0-2.808-.306-3.888-.918a6.249 6.249 0 0 1-2.457-2.565c-.576-1.116-.864-2.412-.864-3.888 0-1.566.288-2.916.864-4.05.594-1.134 1.422-2.007 2.484-2.619 1.062-.63 2.304-.945 3.726-.945 1.674 0 3.051.37 4.131 1.107 1.08.72 1.854 1.72 2.322 2.997.468 1.26.621 2.691.459 4.293h-10.071c-.018 1.152.279 2.043.891 2.673.612.612 1.413.918 2.403.918.756 0 1.395-.162 1.917-.486.54-.342.882-.792 1.026-1.35h3.753a4.78 4.78 0 0 1-1.107 2.538c-.594.72-1.368 1.287-2.322 1.701-.954.396-2.043.594-3.267.594Zm-.135-11.988c-.9 0-1.629.261-2.187.783-.558.504-.873 1.197-.945 2.08h6.156c-.054-.973-.369-1.693-.945-2.16-.558-.469-1.251-.703-2.079-.703Zm23.301 11.988c-1.962 0-3.69-.396-5.184-1.188-1.476-.792-2.628-1.944-3.456-3.456-.828-1.512-1.242-3.33-1.242-5.454 0-2.124.414-3.933 1.242-5.427.828-1.512 1.98-2.664 3.456-3.456 1.494-.792 3.222-1.188 5.184-1.188 1.692 0 3.195.297 4.509.891 1.314.576 2.376 1.395 3.186 2.457.81 1.044 1.305 2.268 1.485 3.672h-4.266c-.234-1.008-.792-1.827-1.674-2.457-.864-.648-1.944-.972-3.24-.972-1.692 0-3.042.54-4.05 1.62-.99 1.08-1.485 2.7-1.485 4.86 0 2.178.495 3.807 1.485 4.887 1.008 1.08 2.358 1.62 4.05 1.62 1.26 0 2.34-.315 3.24-.945.9-.63 1.458-1.467 1.674-2.511h4.266c-.162 1.404-.657 2.637-1.485 3.699-.828 1.062-1.908 1.89-3.24 2.484-1.314.576-2.799.864-4.455.864Zm17.799 0c-1.44 0-2.709-.297-3.807-.89a6.287 6.287 0 0 1-2.565-2.566c-.594-1.116-.891-2.457-.891-4.023 0-1.494.288-2.799.864-3.915a6.296 6.296 0 0 1 2.484-2.646c1.08-.63 2.385-.945 3.915-.945 1.44 0 2.7.297 3.78.891 1.098.594 1.944 1.458 2.538 2.592.612 1.116.918 2.457.918 4.023 0 1.494-.288 2.808-.864 3.942a6.335 6.335 0 0 1-2.484 2.62c-1.062.611-2.358.917-3.888.917Zm-.027-3.213c.972 0 1.755-.35 2.349-1.053.594-.702.891-1.773.891-3.213 0-1.44-.288-2.51-.864-3.213-.576-.702-1.359-1.053-2.349-1.053-.99 0-1.782.351-2.376 1.053-.594.702-.891 1.773-.891 3.213 0 1.422.288 2.493.864 3.213.594.702 1.386 1.053 2.376 1.053Zm9.252 2.97V18.528h3.591l.162 2.322h.135c.324-.936.837-1.584 1.539-1.944.72-.378 1.539-.567 2.457-.567h.81v3.726h-.891c-1.332 0-2.295.297-2.889.891-.594.576-.909 1.404-.945 2.484V33h-3.969Zm10.244 4.51V18.527h3.834l.135 2.511h.216a4.235 4.235 0 0 1 1.701-2.025c.81-.504 1.773-.756 2.889-.756 1.728 0 3.123.63 4.185 1.89 1.08 1.242 1.62 3.114 1.62 5.616 0 2.484-.54 4.356-1.62 5.616-1.062 1.26-2.457 1.89-4.185 1.89-1.116 0-2.079-.252-2.889-.756-.792-.522-1.359-1.197-1.701-2.025h-.216v7.02h-3.969Zm7.29-7.453c.972 0 1.746-.342 2.322-1.026.594-.702.891-1.79.891-3.267 0-1.476-.297-2.556-.891-3.24-.576-.702-1.35-1.053-2.322-1.053-.738 0-1.35.171-1.836.513a3.066 3.066 0 0 0-1.08 1.35 4.299 4.299 0 0 0-.351 1.728v1.404c0 .612.117 1.197.351 1.755.234.54.594.981 1.08 1.323.486.342 1.098.513 1.836.513Z"/></g><defs><clipPath id="a"><path fill="#fff" d="M0 0h197v48H0z"/></clipPath></defs></svg>