<svg xmlns="http://www.w3.org/2000/svg" viewBox="0 0 256 256" focusable="false" color="var(--token-82c171b9-bd6f-4ae6-804b-e2ed453c267d, rgb(0, 0, 0))" style="user-select: none; width: 100%; height: 100%; display: inline-block; fill: var(--token-82c171b9-bd6f-4ae6-804b-e2ed453c267d, rgb(0, 0, 0)); color: var(--token-82c171b9-bd6f-4ae6-804b-e2ed453c267d, rgb(0, 0, 0)); flex-shrink: 0;"><g color="var(--token-82c171b9-bd6f-4ae6-804b-e2ed453c267d, rgb(0, 0, 0))" weight="regular"><path d="M208,80H176V56a48,48,0,0,0-96,0V80H48A16,16,0,0,0,32,96V208a16,16,0,0,0,16,16H208a16,16,0,0,0,16-16V96A16,16,0,0,0,208,80ZM96,56a32,32,0,0,1,64,0V80H96ZM208,208H48V96H208V208Zm-68-56a12,12,0,1,1-12-12A12,12,0,0,1,140,152Z"/></g></svg>