<svg xmlns="http://www.w3.org/2000/svg" width="18" height="18" fill="none"><path fill="#000" fill-rule="evenodd" d="M6.243 3.523a2.437 2.437 0 0 0-2.437 2.438v6a2.437 2.437 0 0 0 2.437 2.438h6a2.437 2.437 0 0 0 2.438-2.438v-6a2.437 2.437 0 0 0-2.438-2.438h-6ZM2.681 5.962a3.562 3.562 0 0 1 3.562-3.563h6a3.562 3.562 0 0 1 3.563 3.563v6a3.562 3.562 0 0 1-3.563 3.563h-6a3.563 3.563 0 0 1-3.562-3.563v-6Z" clip-rule="evenodd"/><path stroke="#000" stroke-linecap="round" stroke-linejoin="round" stroke-width="1.125" d="M12.618 5.586v.001m-3.375 5.624a2.25 2.25 0 1 0 0-4.5 2.25 2.25 0 0 0 0 4.5Z"/></svg>